<svg xmlns="http://www.w3.org/2000/svg" xmlns:xlink="http://www.w3.org/1999/xlink" width="345.266" height="340.39" viewBox="0 0 345.266 340.39"><defs><style>.a{fill:none;}.b{fill:#849055;}.c{clip-path:url(#a);}.d,.g{fill:#d8ec8a;}.e{fill:#ceec8a;}.e,.f,.g{stroke:#fff;stroke-miterlimit:10;}.f{fill:#c8db7c;}.h,.i{fill:#fff;}.i{stroke:#677728;}.j{font-size:12px;font-family:NotoSansJP-Regular, Noto Sans JP;}.k,.l{stroke:none;}.l{fill:#677728;}</style><clipPath id="a"><rect class="a" width="327.508" height="332.269"/></clipPath></defs><g transform="translate(6.708)"><g transform="translate(-6.708 8.564)"><path class="b" d="M62.322,327.947c-2.6-5.439-3.592-11.247-4.612-17.057a8.989,8.989,0,0,1-.223-1.946c-.006-4.883,4.313-8.252,8.765-10.232a2.3,2.3,0,0,0,.457-1.391c0-1.317-1.01-2.633-1.007-3.96a2.281,2.281,0,0,1,.183-.911c1.615-8.121,6.939-16,6.942-24.257a17.464,17.464,0,0,0-.908-5.634l-1.913-1.3c-1.649-3.235-4.162-8.622-8.67-8a4.292,4.292,0,0,0-3.5,3.247c-.545,1.506-.468,2.881-1.529,4.186-4.985,4.608-15.533,5.588-20.914.95-5.419-3.834-8.27-9.5-13.4-13.453-3.036-2.358-7.661-2.1-11.07-3.422-3.438-1.558-4.428-5.082-4.432-8.466a20.291,20.291,0,0,1,.205-2.824l-.921-3.331c-1.623-3.765-4.65-6.746-5.592-10.7C.075,217.959,0,216.427,0,214.886a25.871,25.871,0,0,1,2.077-11.043c1.325-1.31,2.387-2.126,3.2-3.117a8.029,8.029,0,0,0,1.684-4.07c.607-1.87,3.216-2.8,3.627-4.786a8.361,8.361,0,0,0,.322-2.35,35.642,35.642,0,0,0-1.092-6.432,41.349,41.349,0,0,1-.394-5.908,122.662,122.662,0,0,1,.919-12.583l2.6-.674c6.5,1.369,8.7-.01,8.7-6.654q0-.48-.016-1c-1.73-1.956-4.149-1.824-6.389-3.5-1.309-2.075-2.639-4.729-2.638-7.264a5.933,5.933,0,0,1,1.027-3.431c3.211-7.455,12.133-9.123,18.479-4.058,1.471.686,1.722,1.917,1.723,3.254,0,.684-.063,1.4-.063,2.076a4.316,4.316,0,0,0,.365,1.966c1.564.852,3.735.8,5.436,1.347,3.366.149,9.586,3.582,11.39-.5-.005-.133-.007-.265-.007-.4,0-2.67.889-5.033,1.735-7.818l.822-.93a11.352,11.352,0,0,1,4.035,4.774,11.358,11.358,0,0,0-4.035-4.776l1.281-1.448c9.172-9.577,16.41-22.136,27.031-30.367,7.158-2.1,11.045-2.933,14.295-4.978,3-1.887,5.457-4.8,9.435-10.7,2.321-3.882,5.991-7.219,6.538-11.711-2.023-3.96-6.731-6.466-11.591-6.732-2.112,1.819-3.3,2.983-6.795,5.865-3.026-.976-3.937-2-3.939-3.091,0-1.638,2.045-3.423,2.049-5.407a2.743,2.743,0,0,0-.164-.947c-.873-.741-2.648-2.1-3.052-3.1-1.558-3.017-4.814-1.973-4.815-5.255a6.79,6.79,0,0,1,.081-.989q.011-.392.011-.786c0-3.051-.443-6.174-.444-9.221a23.855,23.855,0,0,1,.133-2.631c.111-.884.437-.511,2.268-1.164,4.95-.6,10.327-2.342,15.015-1.423,1.43,1.152,1.934,4.486,2.851,6.017,2.347,4.393,12.127-2.152,15.961-2.977,4.421-2.349,15.743-5.419,20.035-9.742a5.441,5.441,0,0,0,1.636-2.789c.446-1.587.248-2.331,1.647-3.058,2.353-.818,5.064-1.5,7.09.505,4.383,4.949,7.327,4.54,13.579,2.8,3.1-1.691,5.937-4.936,8.071-7.6l3.2.471c3.1.21,4.587,1.287,4.6,3.624a8.971,8.971,0,0,1-.332,2.268c-.2,3.471-.653,7.075-3.624,9.4a1.606,1.606,0,0,0-.35,1.029c.008,1.04.873,2.135.869,3.215q0,.088-.008.176c0,1.035.307,5.408,3.073,6.267a7.471,7.471,0,0,0,3.081-.153,8.333,8.333,0,0,1,2.532-.229c3.439-.015,4.267,1.08,4.264,2.671,0,1.494-.739,3.425-.738,5.288a4.882,4.882,0,0,0,.518,2.31,21.865,21.865,0,0,0,2.169.654c4.278,1.071,9.023,1,13.6.92,1.882-.031,3.736-.061,5.52-.012,6.63-.417,14.03-.036,20.493-1.584,7.256-4.466,12.817-11.543,20.687-15.354l1.1-1.322a10.128,10.128,0,0,0,.308-2.64c0-2.192-.45-4.55-.448-6.744A7.222,7.222,0,0,1,254.042,31a23.908,23.908,0,0,1,13.585-1.254c3.762,1.612,4.268,2.95,8.765-.157,2.5-5.7-.133-14.315,8.243-16.1l2.907-.209c7.373-1.664,13-12.262,19.337-11.293a32.832,32.832,0,0,0,11.978-.509c3.032-.464,6.98-2.2,10.018-1.142,4.71,2.31,6.882,6.414,7.685,11.207l.451,2.225c2.321-.077,4.971-1.007,7.115.137a3.082,3.082,0,0,1,1.139,2.337c0,2.118-2.245,4.3-4.311,5.219-4.783,2.064-6.253,5.265-7.562,10.169-2.932,1.8-4.7,1.19-7.033.584-2.9-.754-6.675-1.507-14.645,2.354-3.412,2.19-7.606,2.441-10.843,5.109A62.453,62.453,0,0,1,295.638,44c-2,.9-5.291,2.216-6.627,3.817-3.433,3.258-6.167,7.387-9.654,10.594-2.984,2.036-5.418,4.7-6.3,8.175-1.782,3.618-2.486,5.66-2.488,6.863,0,2.771,3.717,1.092,6.574,3.978.8,1.535.858,3.19,1.595,4.644,1.366,2.363,4.083,3.812,4.936,6.506.011.221.016.437.017.648,0,1.848-.354,3.363-.354,4.586,0,1.9.865,3.095,5.279,3.744,3.238.911,5.742-.88,8.46-2.262,2.849-1.107,7.856-3.519,10.009-.395a12.119,12.119,0,0,1,.465,3.112c0,5.035-4.583,6.186-10.353,7.114a13.982,13.982,0,0,0-1.865.5c-1.482.529-2.046,1.175-2.051,1.9-.012,1.743,3.237,3.931,4.729,6.007,1.153,1.934.324,4.169,1.316,7.108q.023.246.023.485c-.006,2.4-1.745,4.336-3.725,5.925l1.624,4.049a7.832,7.832,0,0,1,1.7,4.671c-.006,2.086-.978,4.072-1.821,6.728a3.3,3.3,0,0,0-.074.72c0,1.156.456,2.487.455,3.628,0,.045,0,.089,0,.133-.018.274-.027.536-.027.787,0,2.219.646,3.615.883,5.978-1.131,4.16-3.118,5.96-5.156,10.3-1.109,1.4-1.569,2.222-1.574,3.464a9.733,9.733,0,0,0,.224,1.87c.966,1.372.79,2.621,1.17,4.058a3.878,3.878,0,0,1,.378,1.837,3.6,3.6,0,0,1-.082.837c-2.388,7.567-8.826,4.416-13.966,7.007a25.062,25.062,0,0,0-6.3-4.289c-2.109-1.847-2.678-4.194-4.56-6.079l-.084-.068.084.068c1.883,1.884,2.452,4.232,4.56,6.079a25.112,25.112,0,0,1,6.3,4.289c-.19.1-.38.2-.566.311-4.694,4.736-1.007,6.823-10.268,9.091l.758,3.633c7.687,8.991,13.311,17.476,20.54,26.374.254.313.507.625.765.94,2.04,2.807,3.21,7.2,3.2,11.648-.009,5.453-1.787,10.987-5.9,13.776-5.056,3.937-5.766,10.788-7.919,16.29-2.2,6.083-6.974,11.993-14.232,12.406a23.778,23.778,0,0,1-7.926.7c-.764-.019-1.538-.037-2.324-.035a5.573,5.573,0,0,1-2.623-.029l-3.252,1.61c-3.133,3.589-2.926,10.1-6.641,13.318-3.14,2.378-7.92,2.181-10.66,5.165a10.729,10.729,0,0,0-2.079,6.643c0,1.424.169,2.809.169,4.228,0,3.133-.823,6.429-6.117,10.672-7.882,6.015-10.986,3.038-13.54.061-1.673-1.948-3.109-3.9-5.492-3.322-11.631,3.225-11.249,1.276-16.378-8a8.119,8.119,0,0,0-2.246-1.428l-1-1.164-3.6,2.837c-9.661,5.125-10.463-8.494-14.9-13.187-1.633-2.274-4.21-2.264-6.734-2.255a13.61,13.61,0,0,1-3.906-.349c-2.223-.9-3.511-3.069-5.007-4.914a10.377,10.377,0,0,0-2.059-2.026,26.314,26.314,0,0,0-12.5-3.259,27.4,27.4,0,0,0,2.35-5.405c.3-.989.536-2.062.794-3.146-.258,1.084-.5,2.157-.8,3.146a27.357,27.357,0,0,1-2.348,5.405,51.65,51.65,0,0,0-10.5.812c-21.247,2.757-10.256,28.205-31.4,25.726L93.2,309.31c1.124-4.413,2.934-9.642,3.712-14.163A4.661,4.661,0,0,0,97,294.24c0-1.252-.462-2.347-.463-3.605a4.637,4.637,0,0,1,.056-.733c1.433-6.451,6.168-11.433,13.787-10.285,3.19.045,3.759-.968,6.627-2.9,2-.549,4.533-.726,6.007-2.349,1.414-1.475,1.71-3.4,1.711-5.449,0-1.465-.151-2.994-.153-4.471a9.531,9.531,0,0,1,.763-4.207c1.851-2.438,3.032-4.481,3.192-7.576-.136-3.211.514-5.273-3.649-6.546a18.793,18.793,0,0,0-5.085,3.234c-2.823,2.973-6.527,2.794-10.244,2.614-3.76-.18-7.535-.361-10.425,2.718-3.742,2.9-1.863,6.478-3.813,10.182-4.681,6.544-8.2,13.247-9.676,21.07-2.88,14.287-9.536,14.217-9.538,17.815a4.677,4.677,0,0,0,.42,1.781,9.763,9.763,0,0,1,.733,3.763c-.008,5.549-4.376,10.96-6.379,16.094-1.564,3.043-3.079,6.437-4.959,6.436C64.853,331.826,63.681,330.754,62.322,327.947Zm129.922-76.966c-5.72,8.369-.226,20.051-8.6,27.148-8.242,7.262-17.335,5.045-25.9,7.288,8.56-2.243,17.654-.025,25.9-7.287,8.377-7.1,2.882-18.78,8.6-27.148,1.057-1.421,1.989-2.812,2.861-4.195C194.234,248.169,193.3,249.56,192.244,250.981Zm-42.675,11.5c-3.14,2.489-5.837,3.107-7.846,7a12.42,12.42,0,0,0-.865,1.983,12.474,12.474,0,0,1,.866-1.983c2.008-3.889,4.705-4.508,7.845-7a10.76,10.76,0,0,0,3.711-7.419,4.058,4.058,0,0,0-2.289-3.854,4.059,4.059,0,0,1,2.289,3.854A10.764,10.764,0,0,1,149.569,262.483Zm-7.642-10c-1.852,0-3.357-1.2-4.726-5.742C138.57,251.285,140.074,252.481,141.927,252.481Zm8.735-1.423c-.339-.033-.669-.048-.992-.048C149.992,251.01,150.323,251.025,150.661,251.058Zm-13.843-7.316c.007-6.1,4.462-11.1,4.457-16.766a10.851,10.851,0,0,0-1.722-5.787,23.21,23.21,0,0,0-1.959-1.992,23.351,23.351,0,0,1,1.958,1.992,10.857,10.857,0,0,1,1.723,5.787c.006,5.664-4.45,10.665-4.456,16.766Zm63.291-5.221c-.043-.547-.061-1.09-.059-1.633C200.048,237.431,200.067,237.974,200.11,238.521Zm.293-.463.011-.017Zm.032-.05q.134-.211.272-.424Q200.569,237.8,200.434,238.009Zm.526-.563.185-.1Zm.783-.375a14.066,14.066,0,0,1,5.643-.993h0A14.064,14.064,0,0,0,201.743,237.071Zm17.831-1.224c3.294-.595,6.934-1,10.11-1.878a18.135,18.135,0,0,1,2.787-.611,18.2,18.2,0,0,0-2.789.611c-3.174.874-6.817,1.283-10.109,1.876a17.3,17.3,0,0,1-5.564.576A17.317,17.317,0,0,0,219.574,235.848Zm15.61-1.571a5.376,5.376,0,0,1-2.144-.812A5.354,5.354,0,0,0,235.185,234.277Zm.075-.008c6.876-.508,12-7.428,18.362-7.427h0C247.262,226.842,242.135,233.761,235.26,234.269Zm-2.272-.827-.027-.01Zm-.041-.015a1.433,1.433,0,0,0-.435-.067A1.431,1.431,0,0,1,232.948,233.426ZM267.5,233.2c8.214-.9,14.279-6.82,21.439-10.265-7.16,3.445-13.226,9.369-21.44,10.264Zm-11.36-5.985-.027-.008Zm-.084-.024-.014,0Zm-.084-.024h0Zm-.5-.123h0ZM54.715,220.536c-.088.1-.173.185-.257.264.085-.08.17-.168.258-.266.741-1.766,1.277-3.838,2.213-5.6C55.993,216.7,55.458,218.769,54.715,220.536Zm110.651-.213h0Zm-.148,0a8.224,8.224,0,0,1-5.446-2.477A8.222,8.222,0,0,0,165.219,220.322Zm2.917-.681q.128-.065.254-.136Q168.263,219.577,168.135,219.641Zm35.327-.31h0q-.3-.265-.6-.52Q203.161,219.067,203.463,219.332Zm-65.906-.168-.009-.008Zm67.9-.87h0Zm.1-.027.011,0Zm-3.361,0-.062-.05Zm3.435-.017.018,0Zm.03-.007.066-.016Zm.074-.017c3.666-.831,8.677.757,12.269-8.033C214.414,218.982,209.4,217.393,205.738,218.224Zm-45.968-.382-.107-.106Zm-.232-.237-.014-.016Zm-.09-.1-.014-.014Zm41.661-.09a26.16,26.16,0,0,0-7.478-3.969A26.16,26.16,0,0,1,201.109,217.419Zm-41.752-.006-.012-.013Zm-.095-.1-.007-.007ZM51.38,217.086c0,.038-.006.077-.008.117,0-.039,0-.078.008-.116.017-.354.027-.712.027-1.07h0C51.407,216.375,51.4,216.732,51.38,217.086Zm76.977-2.6-.021-.01Zm-.058-.029-.03-.015Zm-.067-.034-.046-.023Zm-.071-.036-.06-.03Zm-.087-.045-.05-.025Zm-.071-.036-.071-.036Zm-.077-.039-.067-.035Zm-.085-.044-.062-.033Zm-.074-.039-.156-.083Zm-.162-.086-.079-.042Zm-.079-.043-.08-.043Zm-.088-.048-.071-.039Zm-.082-.045-.078-.043Zm-.08-.044-.078-.044Zm-.094-.052-.063-.035Zm-.081-.045-.079-.044Zm-.079-.044-.092-.066Zm-.124-.089-.061-.042Zm-.1-.069-.056-.039Zm-.1-.066-.057-.039Zm-.125-.085-.056-.037Zm67.045-.02q-.4-.132-.809-.252Q193.224,213.316,193.625,213.449Zm-67.152-.051-.041-.027Zm-.095-.063-.037-.024Zm-.1-.062-.022-.014Zm-.251-.16-.008,0Zm-.087-.054-.006,0Zm66.337-.011-.223-.059Zm-10.845-.811q.312-.023.619-.043Q181.747,212.212,181.436,212.235Zm.634-.044.391-.023Zm1.334-.062.2-.006Zm1.772-.015h0Zm-.814,0h0Zm-41.409-.6a14.28,14.28,0,0,1,4.181-.3q-.545-.041-1.095-.041A14.149,14.149,0,0,0,142.953,211.509Zm5.324-.168-.028,0Zm-.1-.015-.043-.006Zm-.107-.015-.05-.007Zm-.11-.015-.062-.008Zm-.11-.014-.1-.012Zm-.11-.013-.119-.013Zm-.125-.014-.111-.011Zm-.128-.013-.1-.01Zm-.119-.011-.1-.009Zm-.118-.01-.111-.009Zm70.766-1.051.033-.081Zm.048-.119c.005-.011.009-.023.014-.034Zm.032-.08.013-.032C218.1,209.949,218.1,209.96,218.1,209.97Zm-103.1-.369c3.953-8.391,3.112-18.754,3.78-27.729a5.357,5.357,0,0,1,.56-2.462,5.354,5.354,0,0,0-.561,2.464c-.666,8.974.174,19.337-3.779,27.728Zm103.275-.312a9.089,9.089,0,0,0,.163-1.741h0A9.089,9.089,0,0,1,218.27,209.29ZM102.764,209.1c-2.458-.024-4.869-.071-7.158-.265C97.895,209.028,100.305,209.074,102.764,209.1Zm-7.162-.265-.13-.011Zm-.148-.013-.139-.012Zm-48.059-2.01a4.093,4.093,0,0,0-2.2-.585A4.094,4.094,0,0,1,47.395,206.811Zm-7.035-.054h0Zm-.158,0c-.089,0-.177,0-.263-.007C40.026,206.755,40.113,206.757,40.2,206.758Zm2.048-.211.349-.056Zm.349-.056c.206-.033.414-.066.62-.1C43.013,206.425,42.8,206.458,42.6,206.491Zm1.159-.172.168-.02ZM45,206.225h0Zm-29.143-1.52h0Zm-.065,0a6.982,6.982,0,0,1-1.767-.242A6.975,6.975,0,0,0,15.794,204.705Zm145.139-2.12a12.451,12.451,0,0,1-.991,2,12.451,12.451,0,0,0,.991-2,8.349,8.349,0,0,0,.516-3.01A8.349,8.349,0,0,1,160.933,202.585Zm-81.109-.81.149-.052Zm7.949-.961a6.138,6.138,0,0,0-2.306-.459A6.141,6.141,0,0,1,87.773,200.814Zm-64.733-.087.024-.024Zm.087-.085c.153-.151.305-.3.458-.455C23.432,200.339,23.28,200.491,23.127,200.642Zm62.192-.287h0Zm129.915-5.941c0-.026,0-.052,0-.078C215.234,194.362,215.234,194.388,215.234,194.414Zm0-.133v0Zm0-.084v0Zm0-.084v0Zm-20.566-14.129c-.941.069-1.883.137-2.8.153.922-.016,1.865-.085,2.807-.153.38-.028.759-.055,1.138-.08C195.434,179.928,195.053,179.956,194.672,179.984Zm-26.965-1.066c3.995-2.021,9.525-4.458,13.878-3.387a9.566,9.566,0,0,0-2.288-.261C175.411,175.27,171.029,177.238,167.707,178.918Zm-43.476-.647Zm30.3-3.86q.65,1.28,1.257,2.573c-.874-1.875-1.832-3.723-2.824-5.566q.8,1.491,1.567,2.992Zm73.292.98a21.486,21.486,0,0,0,2.671-3.786A21.515,21.515,0,0,1,227.825,175.391Zm-81.737-.908q-1.155.014-2.31.015Q144.934,174.5,146.089,174.484Zm.006,0,1.145-.015Zm1.157-.016h0Zm1.155-.018q1.285-.021,2.565-.037Q149.692,174.428,148.406,174.451Zm5.338-.046-.76,0Zm-.862,0h0Zm-13.9-.009-.586-.032Zm-.65-.036-.108-.007Zm-.311-.019a49.509,49.509,0,0,1-5.255-.6h0A49.509,49.509,0,0,0,138.019,174.338Zm130.333-1.7a4.708,4.708,0,0,0-3.064-1.088A4.711,4.711,0,0,1,268.352,172.636Zm-136.025-.256c0-.006,0-.013-.006-.019Zm-.045-.133c-.005-.014-.009-.028-.014-.042Zm-.038-.113-.035-.1Zm118.087-7.169c1.1,2.178,3.163,3.561,5.278,4.864a8.146,8.146,0,0,0,7.6,1.952,8.15,8.15,0,0,1-7.6-1.952c-2.115-1.3-4.173-2.686-5.278-4.864ZM132.2,172c-.746-2.2-1.617-4.473-2.2-6.4C130.583,167.531,131.453,169.806,132.2,172Zm98.382-.566.026-.041Zm.03-.047.026-.042Zm.027-.045c.017-.03.035-.06.051-.091C230.673,171.287,230.656,171.318,230.638,171.347Zm.053-.094.024-.045Zm.027-.05.023-.045Zm.024-.047.022-.045Zm.028-.056.021-.044Zm.025-.053.016-.034Zm.029-.063.011-.023Zm.024-.054a.01.01,0,0,1,0,0A.01.01,0,0,0,230.848,170.93ZM70.441,165.75c-6.046,1.768-13.843,5.422-19.86,2.062C56.6,171.172,64.4,167.519,70.441,165.75Zm161.94,1.67h0a50.281,50.281,0,0,1-5.354-4.79A50.231,50.231,0,0,0,232.381,167.42Zm-161.94-1.67c7.6-1.921,15.585-4.119,22.362-8.106C86.026,161.631,78.044,163.829,70.441,165.75ZM130,165.592l-.068-.228Zm-.072-.243c-.01-.035-.02-.071-.031-.106Zm-.036-.125c-.01-.036-.02-.071-.031-.107C129.87,165.152,129.88,165.187,129.89,165.223Zm-.031-.107-.087-.222Zm120.447-.237a0,0,0,0,1,0,0Zm-120.552-.033-.067-.174ZM236,164.656c.511-.4,1.021-.8,1.538-1.179C237.018,163.858,236.508,164.259,236,164.656ZM129.659,164.6c-.018-.047-.036-.095-.054-.142Zm-.092-.243c-.014-.038-.03-.078-.044-.116Zm-.094-.251-.029-.076Zm-.09-.243-.016-.044Zm-.087-.242,0-.008Zm120.76-.028h0s0,0,0,0a.008.008,0,0,0,0,0Zm-.688-.089-.1-.012ZM219.4,156.642c2.023,2.43,5.431,3.522,7.546,5.9-2.114-2.383-5.523-3.474-7.546-5.905-1.411-1.849-1.949-3.89-3.2-5.456C217.455,152.751,217.993,154.793,219.4,156.642Zm-126.116.711c7.643-3.361,15.667-12.972,24.674-9.107a10.831,10.831,0,0,0-4.324-.9C106.354,147.345,99.688,154.538,93.289,157.353Zm158.98-2.618c.582-1.336,1.161-2.653,1.577-3.943C253.43,152.082,252.852,153.4,252.269,154.735Zm-66.959-1.147c6.272-1.452,4.98-3.609,13.542-3.155h0c-.791-.042-1.5-.062-2.135-.062C190.464,150.371,191,152.27,185.31,153.588Zm-.615-.306c-8.45-4.049-12.966.013-20.548-4.586C171.729,153.3,176.246,149.234,184.7,153.283Zm-24.407-.329c1.228-1.384,2.533-2.811,3.859-4.257,1.721-1.877,3.48-3.79,5.163-5.7C166.33,146.381,163.109,149.769,160.288,152.954Zm93.559-2.165q.016-.047.03-.095C253.868,150.726,253.858,150.757,253.847,150.789Zm.032-.1.03-.1Zm-41.533-1.813a9.072,9.072,0,0,0-2.973-.468A9.079,9.079,0,0,1,212.346,148.878Zm-48.2-.181Zm82.78-18.6c5.422,4.452,8.735,8.068,8.724,13.247.011-5.179-3.3-8.795-8.724-13.247-3.6-3.065-4.912-5.4-4.918-7.432h0C242.015,124.7,243.328,127.028,246.927,130.093Zm-77.578,12.855.064-.073Zm.181-.206.035-.04Zm.141-.162.02-.023Zm3.371-4.034.023-.029Zm.139-.177Zm.079-.12,0-.008Zm1.806-2.488.018-.023Zm.071-.09.043-.055Zm.053-.067c2.309-2.914,4.936-5.63,6.771-8.8a35.039,35.039,0,0,1,2.273-4.133,35.147,35.147,0,0,0-2.274,4.133,33.067,33.067,0,0,1-2.944,4.17C177.763,132.528,176.431,134.038,175.19,135.605Zm-9.084-4.558q.484-.078.948-.141Q166.59,130.969,166.106,131.048Zm12.6-.095c-2.271-.153-4.687-.3-6.991-.3C174.023,130.657,176.44,130.8,178.71,130.953Zm-11.656-.046.212-.026Zm.481-.057.056-.006Zm.06-.007.27-.028Zm4.018-.189h0Zm-44.059-3.077h0c-2.653-1.732-5.745-3.292-8.652-3.292C121.808,124.284,124.9,125.844,127.553,127.576Zm-14.516-1.01c-2.829,0-4.157-3.773-5.724-5.707C108.88,122.794,110.207,126.568,113.037,126.567Zm81.34-12.982q.2-.1.408-.188Q194.58,113.486,194.377,113.584Zm-60.325-7.7q-.971,2.495-1.869,5.042.9-2.545,1.87-5.042.2-.714.39-1.44Q134.253,105.165,134.051,105.88Zm74.2,4.908a7.062,7.062,0,0,1,4.212-2.526A7.063,7.063,0,0,0,208.249,110.788Zm9.99-.48a7.736,7.736,0,0,0-4.956-2.107A7.741,7.741,0,0,1,218.239,110.307Zm-62.652-1.693c-2.954.312-5.521-.385-8.576-.748q.388.046.768.1h0C150.5,108.341,152.884,108.9,155.587,108.614Zm.038,0,.053-.006Zm.2-.023.038,0Zm.2-.026.022,0Zm.05-.007.065-.009Zm.913-.161c-.282.06-.56.109-.834.15q.411-.061.834-.15a21.85,21.85,0,0,0,4.607-1.828A21.925,21.925,0,0,1,156.987,108.392Zm-10.021-.531-.018,0Zm-.809-.085Zm-8.758-2.031a15.866,15.866,0,0,1-2.9-1.508,65.623,65.623,0,0,0,1.322-6.476,65.476,65.476,0,0,1-1.324,6.476A15.847,15.847,0,0,0,137.4,105.745Zm113.885-1.207h0a18.277,18.277,0,0,0-1.071-5.932A18.277,18.277,0,0,1,251.284,104.538ZM176,104.18q.668-.052,1.336-.113c.134,0,.264.007.394.008q-.195,0-.394-.008Q176.665,104.13,176,104.18Zm2.154-.112q-.188.006-.38.006Q177.963,104.075,178.151,104.069Zm.3-.014.14-.009Zm96.564-2.478a12.06,12.06,0,0,1-2.046-.3A12.06,12.06,0,0,0,275.012,101.577Zm-50.329-.4q.071-.125.148-.249Q224.754,101.056,224.683,101.182Zm19.6-.817q-1.614.285-3.233.484,1.618-.2,3.233-.484l.118-.017Zm.151-.022.089-.014Zm.121-.019.094-.015Zm.12-.019.117-.02Zm.138-.023.092-.016Zm.134-.024.073-.013Zm.119-.022.072-.014Zm.146-.028.07-.014Zm.131-.026.045-.009Zm.119-.025.02,0ZM208.122,97.7l-.049-.014Zm-72.291-.026.019-.127C135.843,97.595,135.837,97.637,135.831,97.679Zm72.04-.043-.066-.018Zm-.295-.082-.089-.025Zm-.247-.069-.09-.025Zm-71.463-.053c0-.029.009-.058.013-.087C135.876,97.374,135.871,97.4,135.867,97.432ZM207,97.392l-.141-.043Zm-.181-.056-.1-.032Zm-.143-.045-.1-.032Zm-.144-.046-.1-.032Zm-.139-.045-.107-.035Zm-70.493,0c0-.018.006-.037.008-.055C135.906,97.16,135.9,97.179,135.9,97.2Zm70.353-.043-.28-.094Zm47.761-.049.013,0Zm.1-.036.041-.014Zm-48.161-.015-.121-.042Zm48.255-.018.081-.028ZM205.8,97l-.1-.036Zm48.521,0a17.4,17.4,0,0,1,4.494-.96A17.381,17.381,0,0,0,254.324,97Zm-118.391-.03c0-.01,0-.019,0-.03C135.935,96.949,135.934,96.958,135.933,96.968Zm69.725-.018-.095-.034Zm-.139-.049-.1-.035Zm-.135-.049-.11-.04Zm-.136-.05-.135-.05Zm-69.286-.052a.134.134,0,0,0,0-.015A.133.133,0,0,1,135.962,96.75Zm69.12-.009-.1-.037Zm-.156-.059-.075-.028Zm-.135-.052-.069-.027Zm-.136-.053-.057-.022Zm-.134-.053-.043-.017Zm-.129-.051-.009,0Zm-16.27-.084c1.526-2.544,3.007-5.2,5.193-7.074h0C191.129,91.189,189.648,93.845,188.122,96.39Zm15.914-.061,0,0Zm-.116-.048-.008,0Zm54.9-.243.136-.008Zm.169-.01.071,0Zm.146-.007.053,0Zm.122,0h0Zm-123.624-15.3c0-.009,0-.019-.006-.029Zm-.039-.186-.01-.048Zm-.04-.189-.015-.067Zm-.043-.2c-.005-.025-.011-.05-.017-.075C135.5,80.095,135.5,80.12,135.508,80.145Zm-.045-.2c-.006-.027-.012-.055-.019-.082C135.451,79.892,135.457,79.919,135.464,79.946Zm-.047-.2c-.007-.028-.013-.057-.02-.085C135.4,79.689,135.41,79.718,135.417,79.746Zm-.047-.2c-.007-.03-.014-.059-.021-.089C135.356,79.486,135.363,79.515,135.369,79.545Zm-.049-.2c-.007-.031-.016-.063-.023-.094C135.3,79.282,135.313,79.314,135.32,79.345Zm-.05-.2c-.009-.034-.017-.067-.026-.1C135.254,79.077,135.262,79.112,135.271,79.145Zm-.052-.2-.027-.1C135.2,78.875,135.211,78.91,135.219,78.944Zm-.052-.2-.03-.111Zm-.054-.2-.036-.133Zm-.055-.2c-.018-.067-.037-.134-.056-.2C135.02,78.209,135.04,78.277,135.058,78.343Zm-.056-.2c-1.053-3.618-5.644-5.462-5.905-9.072C129.357,72.681,133.947,74.523,135,78.143Zm50.171-.015Zm-56.083-9.186c3.862-5.028,12.452-6.091,15.786-11.781a9.612,9.612,0,0,0,.234-2.292,9.612,9.612,0,0,1-.234,2.292c-3.334,5.691-11.925,6.754-15.786,11.781Z" transform="translate(0 0)"/></g><g transform="translate(-1.621)"><g class="c"><path class="d" d="M531.172,14.4c-2.031-1.144-4.541-.214-6.741-.136l-.426-2.224c-.762-4.794-2.819-8.9-7.28-11.207-2.878-1.055-6.618.678-9.491,1.142a29.5,29.5,0,0,1-11.346.509c-6-.967-11.333,9.629-18.318,11.294l-2.753.209c-7.934,1.789-5.442,10.406-7.809,16.1-4.26,3.107-4.74,1.77-8.3.157A21.54,21.54,0,0,0,445.837,31.5c-3.485,3.784-.393,10.068-1.59,14.716l-1.04,1.321c-7.456,3.812-12.724,10.887-19.6,15.354-6.122,1.548-13.132,1.167-19.412,1.584-5.8-.166-12.4.6-18.117-.907-6.1.788-12.863,1.012-18.171,3.983.218,2.528,1.858,1.907,2.454,5.03-1.126,5.621,7.267,3.848,10.233,6.043,2.924,2.453,3.539,6.547,5.966,9.435,4.22,4.407,8.679,7.879,14.713,9.831,11.5,3.442,23.458,5.183,35.312,2.972,5.216-.781,9.01-4.171,14.214-4.35,5.4.464,9.4,5.214,14.9,5.562,6.452.74,13.537.776,19.249,4.052a12.689,12.689,0,0,1,1.767-.5c6.448-1.1,11.333-2.5,9.367-10.227-2.04-3.125-6.783-.712-9.481.394-2.575,1.382-4.947,3.173-8.015,2.263-7.185-1.116-4.44-3.846-4.681-8.978-.809-2.695-3.382-4.143-4.676-6.506-.7-1.453-.752-3.108-1.512-4.643-3.881-4.138-9.445,1.111-3.87-10.841a14.363,14.363,0,0,1,5.969-8.175c3.3-3.207,5.893-7.337,9.144-10.594,1.265-1.6,4.383-2.918,6.278-3.817a60.114,60.114,0,0,0,4.957-4.324c3.066-2.669,7.039-2.92,10.272-5.109,13.624-6.965,14.3,1.09,20.535-2.939,1.24-4.9,2.632-8.1,7.163-10.169,2.708-1.275,5.751-4.96,3.006-7.557" transform="translate(-204.965 -0.279)"/><path class="e" d="M531.172,14.4c-2.031-1.144-4.541-.214-6.741-.136l-.426-2.224c-.762-4.794-2.819-8.9-7.28-11.207-2.878-1.055-6.618.678-9.491,1.142a29.5,29.5,0,0,1-11.346.509c-6-.967-11.333,9.629-18.318,11.294l-2.753.209c-7.934,1.789-5.442,10.406-7.809,16.1-4.26,3.107-4.74,1.77-8.3.157A21.54,21.54,0,0,0,445.837,31.5c-3.485,3.784-.393,10.068-1.59,14.716l-1.04,1.321c-7.456,3.812-12.724,10.887-19.6,15.354-6.122,1.548-13.132,1.167-19.412,1.584-5.8-.166-12.4.6-18.117-.907-6.1.788-12.863,1.012-18.171,3.983.218,2.528,1.858,1.907,2.454,5.03-1.126,5.621,7.267,3.848,10.233,6.043,2.924,2.453,3.539,6.547,5.966,9.435,4.22,4.407,8.679,7.879,14.713,9.831,11.5,3.442,23.458,5.183,35.312,2.972,5.216-.781,9.01-4.171,14.214-4.35,5.4.464,9.4,5.214,14.9,5.562,6.452.74,13.537.776,19.249,4.052a12.689,12.689,0,0,1,1.767-.5c6.448-1.1,11.333-2.5,9.367-10.227-2.04-3.125-6.783-.712-9.481.394-2.575,1.382-4.947,3.173-8.015,2.263-7.185-1.116-4.44-3.846-4.681-8.978-.809-2.695-3.382-4.143-4.676-6.506-.7-1.453-.752-3.108-1.512-4.643-3.881-4.138-9.445,1.111-3.87-10.841a14.363,14.363,0,0,1,5.969-8.175c3.3-3.207,5.893-7.337,9.144-10.594,1.265-1.6,4.383-2.918,6.278-3.817a60.114,60.114,0,0,0,4.957-4.324c3.066-2.669,7.039-2.92,10.272-5.109,13.624-6.965,14.3,1.09,20.535-2.939,1.24-4.9,2.632-8.1,7.163-10.169C530.875,20.685,533.917,17,531.172,14.4Z" transform="translate(-204.965 -0.279)"/><path class="d" d="M456.262,503.876c-.245-.314-.484-.627-.724-.941-7.151,3.363-13.044,9.739-21.142,10.672-3.318-.078-5.379-3.164-8.052-4.645-8.657-5.836-14.248,5.073-22.489,5.716-.646.1-1.556-.533-2.1-.8-.757-.381-2.4.376-3.18.505-3.008.873-6.457,1.283-9.576,1.877-5.848,1.854-12.378-1.55-17.874,1.739-2.827,4.613-4.814,8.855-8.015,13.4-5.419,8.369-.215,20.051-8.149,27.148-9.749,9.067-20.757,3.355-30.467,10,1.417,1.846,2.637,4.011,4.743,4.914,3.18,1.023,7.693-.9,10.079,2.605,4.2,4.692,4.959,18.312,14.11,13.187l3.413-2.837.948,1.164A7.657,7.657,0,0,1,359.911,589c4.858,9.279,4.5,11.226,15.514,8,5.71-1.453,5.677,13.213,18.029,3.26,10.567-8.939,2.335-13.675,7.6-21.542,2.6-2.985,7.123-2.786,10.1-5.165,3.52-3.219,3.324-9.728,6.292-13.317l3.08-1.61a4.994,4.994,0,0,0,2.485.029c3.334-.01,6.421.408,9.71-.665,6.875-.411,11.4-6.323,13.481-12.406,2.04-5.5,2.712-12.353,7.5-16.29,7.073-5.063,6.856-19.175,2.556-25.423" transform="translate(-180.776 -280.188)"/><path class="f" d="M456.262,503.876c-.245-.314-.484-.627-.724-.941-7.151,3.363-13.044,9.739-21.142,10.672-3.318-.078-5.379-3.164-8.052-4.645-8.657-5.836-14.248,5.073-22.489,5.716-.646.1-1.556-.533-2.1-.8-.757-.381-2.4.376-3.18.505-3.008.873-6.457,1.283-9.576,1.877-5.848,1.854-12.378-1.55-17.874,1.739-2.827,4.613-4.814,8.855-8.015,13.4-5.419,8.369-.215,20.051-8.149,27.148-9.749,9.067-20.757,3.355-30.467,10,1.417,1.846,2.637,4.011,4.743,4.914,3.18,1.023,7.693-.9,10.079,2.605,4.2,4.692,4.959,18.312,14.11,13.187l3.413-2.837.948,1.164A7.657,7.657,0,0,1,359.911,589c4.858,9.279,4.5,11.226,15.514,8,5.71-1.453,5.677,13.213,18.029,3.26,10.567-8.939,2.335-13.675,7.6-21.542,2.6-2.985,7.123-2.786,10.1-5.165,3.52-3.219,3.324-9.728,6.292-13.317l3.08-1.61a4.994,4.994,0,0,0,2.485.029c3.334-.01,6.421.408,9.71-.665,6.875-.411,11.4-6.323,13.481-12.406,2.04-5.5,2.712-12.353,7.5-16.29C460.779,524.235,460.562,510.124,456.262,503.876Z" transform="translate(-180.776 -280.188)"/><path class="d" d="M570.447,252.376l-1.538-4.048c2-1.694,3.741-3.789,3.505-6.411-.94-2.939-.154-5.173-1.247-7.108-2-2.936-7.326-6.1-2.537-7.9-5.711-3.276-12.8-3.312-19.249-4.052-5.5-.348-9.5-5.1-14.9-5.562-3.175.109-5.826,1.413-8.594,2.591,6.02,18.667-17.3,18.728-3.112,31.488,7.225,6.262,10.5,10.868,6.614,20.5-1.348,4.581-4.735,9.52-3.389,14.369,1.046,2.178,3,3.562,5,4.864,5.614,4.885,8.339-.452,12.205,2.921,1.783,1.885,2.322,4.231,4.319,6.078a23.759,23.759,0,0,1,5.969,4.289c4.87-2.591,10.967.56,13.231-7.008a4.687,4.687,0,0,0-.28-2.673c-.36-1.438-.193-2.687-1.109-4.058-.466-2.516-.215-3.349,1.279-5.334,1.932-4.338,3.813-6.138,4.884-10.3-.25-2.63-.98-4.062-.812-6.764.046-1.412-.646-3.149-.358-4.482,1.344-4.473,3.039-7.045.116-11.4" transform="translate(-288.648 -121.053)"/><path class="g" d="M570.447,252.376l-1.538-4.048c2-1.694,3.741-3.789,3.505-6.411-.94-2.939-.154-5.173-1.247-7.108-2-2.936-7.326-6.1-2.537-7.9-5.711-3.276-12.8-3.312-19.249-4.052-5.5-.348-9.5-5.1-14.9-5.562-3.175.109-5.826,1.413-8.594,2.591,6.02,18.667-17.3,18.728-3.112,31.488,7.225,6.262,10.5,10.868,6.614,20.5-1.348,4.581-4.735,9.52-3.389,14.369,1.046,2.178,3,3.562,5,4.864,5.614,4.885,8.339-.452,12.205,2.921,1.783,1.885,2.322,4.231,4.319,6.078a23.759,23.759,0,0,1,5.969,4.289c4.87-2.591,10.967.56,13.231-7.008a4.687,4.687,0,0,0-.28-2.673c-.36-1.438-.193-2.687-1.109-4.058-.466-2.516-.215-3.349,1.279-5.334,1.932-4.338,3.813-6.138,4.884-10.3-.25-2.63-.98-4.062-.812-6.764.046-1.412-.646-3.149-.358-4.482C571.676,259.3,573.371,256.73,570.447,252.376Z" transform="translate(-288.648 -121.053)"/><path class="d" d="M134.752,516.108c1.9-3.889,4.458-4.508,7.432-7,2.942-2.543,5.654-9.358,1.035-11.425-6.409-.659-9.923,5.879-12.817-4.558-2.075-9.507,7.651-16.073,2.294-25.312-4.5-5.388-6.81-4.376-11.869-7.411-8.2-6.214-20.307-4.037-30.037-4.97-6.4-.248-2.366-6.21-6.981-7.92-2.679-1.255-5.192-.019-7.694.888-2.2.8-4.485,1.01-6.538,2.35-5.154,3-11.489,4.848-14.806,10.179-1.109,1.878-1.652,4.246-2.441,6.23-2.293,2.684-3.329-1.459-3.16-3.449.174-3.78-.464-7.878-3.734-10.247-2.021-1.423-5.079.1-7.26-.1-4.463-1.786-3.533-6.527-6.336-10.413-7-3.84-10.072,10.521-18.169,8.1-2.9-1.141-5.41-2.742-8.174-3.7-.769.991-1.775,1.806-3.029,3.116C.33,455.252.317,460.93.674,466.075c.893,3.953,3.76,6.934,5.3,10.7l.872,3.332c-.538,4.029-.186,9.287,4,11.29,3.229,1.319,7.609,1.064,10.486,3.422,4.863,3.951,7.564,9.619,12.7,13.452,5.1,4.639,15.089,3.659,19.812-.949,1-1.305.933-2.68,1.448-4.186a4.171,4.171,0,0,1,3.311-3.248c4.269-.618,6.65,4.768,8.213,8l1.811,1.3c3.3,10.358-3.843,19.944-5.716,29.891-.85,2.106,1.773,4.178.349,6.262-4.756,2.232-9.352,6.232-8.091,12.177.966,5.811,1.909,11.619,4.369,17.058,3.579,7.8,5.78,2.2,8.095-2.556,2.324-6.289,8.009-12.993,5.35-19.858-2.237-5.68,5.524-3.3,8.636-19.595,1.4-7.823,4.731-14.526,9.166-21.07,1.847-3.7.066-7.284,3.611-10.183,5.449-6.124,14.2.648,19.58-5.332a17.724,17.724,0,0,1,4.817-3.234c3.943,1.272,3.327,3.334,3.456,6.545-.151,3.095-1.269,5.138-3.023,7.577-1.961,4.269,1.066,10.532-2.2,14.127-1.4,1.624-3.8,1.8-5.69,2.348-2.717,1.931-3.256,2.946-6.278,2.9-7.218-1.148-11.7,3.835-13.06,10.285-.28,1.9.663,3.334.3,5.246-.738,4.52-2.453,9.75-3.517,14.162l1.737.075c20.025,2.48,9.614-22.969,29.741-25.726a46.474,46.474,0,0,1,9.946-.812,28.122,28.122,0,0,0,2.225-5.4c.722-2.507,1.053-5.551,2.319-7.962" transform="translate(-0.279 -246.407)"/><path class="f" d="M134.752,516.108c1.9-3.889,4.458-4.508,7.432-7,2.942-2.543,5.654-9.358,1.035-11.425-6.409-.659-9.923,5.879-12.817-4.558-2.075-9.507,7.651-16.073,2.294-25.312-4.5-5.388-6.81-4.376-11.869-7.411-8.2-6.214-20.307-4.037-30.037-4.97-6.4-.248-2.366-6.21-6.981-7.92-2.679-1.255-5.192-.019-7.694.888-2.2.8-4.485,1.01-6.538,2.35-5.154,3-11.489,4.848-14.806,10.179-1.109,1.878-1.652,4.246-2.441,6.23-2.293,2.684-3.329-1.459-3.16-3.449.174-3.78-.464-7.878-3.734-10.247-2.021-1.423-5.079.1-7.26-.1-4.463-1.786-3.533-6.527-6.336-10.413-7-3.84-10.072,10.521-18.169,8.1-2.9-1.141-5.41-2.742-8.174-3.7-.769.991-1.775,1.806-3.029,3.116C.33,455.252.317,460.93.674,466.075c.893,3.953,3.76,6.934,5.3,10.7l.872,3.332c-.538,4.029-.186,9.287,4,11.29,3.229,1.319,7.609,1.064,10.486,3.422,4.863,3.951,7.564,9.619,12.7,13.452,5.1,4.639,15.089,3.659,19.812-.949,1-1.305.933-2.68,1.448-4.186a4.171,4.171,0,0,1,3.311-3.248c4.269-.618,6.65,4.768,8.213,8l1.811,1.3c3.3,10.358-3.843,19.944-5.716,29.891-.85,2.106,1.773,4.178.349,6.262-4.756,2.232-9.352,6.232-8.091,12.177.966,5.811,1.909,11.619,4.369,17.058,3.579,7.8,5.78,2.2,8.095-2.556,2.324-6.289,8.009-12.993,5.35-19.858-2.237-5.68,5.524-3.3,8.636-19.595,1.4-7.823,4.731-14.526,9.166-21.07,1.847-3.7.066-7.284,3.611-10.183,5.449-6.124,14.2.648,19.58-5.332a17.724,17.724,0,0,1,4.817-3.234c3.943,1.272,3.327,3.334,3.456,6.545-.151,3.095-1.269,5.138-3.023,7.577-1.961,4.269,1.066,10.532-2.2,14.127-1.4,1.624-3.8,1.8-5.69,2.348-2.717,1.931-3.256,2.946-6.278,2.9-7.218-1.148-11.7,3.835-13.06,10.285-.28,1.9.663,3.334.3,5.246-.738,4.52-2.453,9.75-3.517,14.162l1.737.075c20.025,2.48,9.614-22.969,29.741-25.726a46.474,46.474,0,0,1,9.946-.812,28.122,28.122,0,0,0,2.225-5.4C133.155,521.563,133.485,518.518,134.752,516.108Z" transform="translate(-0.279 -246.407)"/><path class="d" d="M493.955,400.228l-.718-3.633c8.772-2.269,5.281-4.355,9.726-9.092.177-.113.357-.214.536-.31a23.768,23.768,0,0,0-5.97-4.289c-2-1.847-2.536-4.194-4.319-6.079-3.866-3.373-6.591,1.965-12.2-2.92-2-1.3-3.954-2.686-5-4.864a8.454,8.454,0,0,1-.26-1.373c-1.724-.246-3.59-.413-5.066-.788-1.466-.727-3.092-1.326-4.743-.7-2.187,1.163-4.051,3.279-6.2,4.5-1.632,1.412-1.737,3.7-2.437,4.836a24.156,24.156,0,0,1-3.6,5.12c-1,1.661-1.716,4.552-3.211,5.9-1.75.984-1.364.522-4.314,1.789a19.666,19.666,0,0,0-3.416,10.169c.074,5.288,4.107,10.029,2.753,15.445-5.823,15.643-15.761-.2-16.283,18.573-.482,3.882-1.033,6.906-.8,10.09.185-.31.373-.622.565-.936,5.5-3.289,12.027.115,17.874-1.739,3.118-.594,6.568-1,9.576-1.877.775-.13,2.422-.886,3.18-.505.546.27,1.456.9,2.1.8,8.241-.642,13.832-11.552,22.489-5.716,2.674,1.48,4.734,4.566,8.052,4.645,8.1-.932,13.991-7.309,21.142-10.672-6.849-8.9-12.176-17.383-19.458-26.374" transform="translate(-238.651 -203.855)"/><path class="e" d="M493.955,400.228l-.718-3.633c8.772-2.269,5.281-4.355,9.726-9.092.177-.113.357-.214.536-.31a23.768,23.768,0,0,0-5.97-4.289c-2-1.847-2.536-4.194-4.319-6.079-3.866-3.373-6.591,1.965-12.2-2.92-2-1.3-3.954-2.686-5-4.864a8.454,8.454,0,0,1-.26-1.373c-1.724-.246-3.59-.413-5.066-.788-1.466-.727-3.092-1.326-4.743-.7-2.187,1.163-4.051,3.279-6.2,4.5-1.632,1.412-1.737,3.7-2.437,4.836a24.156,24.156,0,0,1-3.6,5.12c-1,1.661-1.716,4.552-3.211,5.9-1.75.984-1.364.522-4.314,1.789a19.666,19.666,0,0,0-3.416,10.169c.074,5.288,4.107,10.029,2.753,15.445-5.823,15.643-15.761-.2-16.283,18.573-.482,3.882-1.033,6.906-.8,10.09.185-.31.373-.622.565-.936,5.5-3.289,12.027.115,17.874-1.739,3.118-.594,6.568-1,9.576-1.877.775-.13,2.422-.886,3.18-.505.546.27,1.456.9,2.1.8,8.241-.642,13.832-11.552,22.489-5.716,2.674,1.48,4.734,4.566,8.052,4.645,8.1-.932,13.991-7.309,21.142-10.672C506.564,417.7,501.237,409.219,493.955,400.228Z" transform="translate(-238.651 -203.855)"/><path class="d" d="M333.863,478.361c-5,.193-8.516,4.707-12.358,7.27-2.944,1.746-6.143.489-8.3-1.8-3.883-4.453-9.823-7.6-15.795-6.192a24.849,24.849,0,0,0-7.033,6.13,17.373,17.373,0,0,1,3.812,3.549c5.357,9.239-4.369,15.8-2.295,25.312,2.895,10.437,6.409,3.9,12.818,4.558,4.619,2.067,1.908,8.882-1.035,11.425-2.974,2.488-5.529,3.107-7.432,7-1.267,2.411-1.6,5.455-2.319,7.962a28.118,28.118,0,0,1-2.225,5.4,23.908,23.908,0,0,1,11.836,3.261,10.082,10.082,0,0,1,1.95,2.025c9.711-6.648,20.718-.936,30.467-10,7.934-7.1,2.73-18.78,8.149-27.148,2.984-4.231,4.913-8.2,7.45-12.459-.236-3.185.315-6.209.8-10.09.147-5.287,1.042-7.828,2.38-9.1-5.85-5.427-11.824-7.817-20.866-7.1" transform="translate(-161.77 -265.904)"/><path class="g" d="M333.863,478.361c-5,.193-8.516,4.707-12.358,7.27-2.944,1.746-6.143.489-8.3-1.8-3.883-4.453-9.823-7.6-15.795-6.192a24.849,24.849,0,0,0-7.033,6.13,17.373,17.373,0,0,1,3.812,3.549c5.357,9.239-4.369,15.8-2.295,25.312,2.895,10.437,6.409,3.9,12.818,4.558,4.619,2.067,1.908,8.882-1.035,11.425-2.974,2.488-5.529,3.107-7.432,7-1.267,2.411-1.6,5.455-2.319,7.962a28.118,28.118,0,0,1-2.225,5.4,23.908,23.908,0,0,1,11.836,3.261,10.082,10.082,0,0,1,1.95,2.025c9.711-6.648,20.718-.936,30.467-10,7.934-7.1,2.73-18.78,8.149-27.148,2.984-4.231,4.913-8.2,7.45-12.459-.236-3.185.315-6.209.8-10.09.147-5.287,1.042-7.828,2.38-9.1C348.879,480.03,342.9,477.641,333.863,478.361Z" transform="translate(-161.77 -265.904)"/><path class="d" d="M95.159,327.8c-6.517,4.171-14.267,6.429-21.643,8.4-5.828,1.8-13.374,5.552-19.113,1.878-7.8-7.436,6.444-11.318,8.081-17.764.594-4.663-1.131-10.2-5.012-12.85l-.779.93c-.841,2.922-1.726,5.378-1.637,8.214-1.708,4.083-7.6.651-10.79.5-1.611-.543-3.666-.494-5.149-1.346-1.058-2.2.936-5.891-1.917-7.3-6.011-5.065-14.463-3.4-17.5,4.059-2.166,3.335-.3,7.641,1.527,10.694,2.121,1.679,4.413,1.547,6.051,3.5.214,7.5-1.767,9.086-8.223,7.651l-2.464.673c-.593,6.065-1.329,12.408-.5,18.492.519,2.929,1.548,5.813.73,8.782-.39,1.992-2.86,2.917-3.435,4.786a8.267,8.267,0,0,1-1.6,4.071c2.764.961,5.269,2.562,8.174,3.7,8.1,2.417,11.165-11.943,18.169-8.1,2.8,3.886,1.873,8.626,6.336,10.412,2.181.2,5.239-1.323,7.26.1,3.27,2.369,3.908,6.467,3.734,10.247-.169,1.99.867,6.133,3.16,3.449.789-1.985,1.332-4.352,2.441-6.231,3.317-5.332,9.651-7.178,14.806-10.179,2.053-1.34,4.34-1.554,6.538-2.351,2.5-.907,5.014-2.142,7.693-.888,4.615,1.71.579,7.672,6.981,7.92,5.811.557,12.472.006,18.641.8,3.747-8.391,2.95-18.755,3.581-27.73.033-3.285,2.127-5.111,5.17-3.6,14.614,8.57,7.387-5.492,5.332-13.155a58.841,58.841,0,0,1-3.3-13.974,24.2,24.2,0,0,1-7.892-2.86c-8.565-3.963-16.191,5.7-23.454,9.07" transform="translate(-6.566 -170.223)"/><path class="g" d="M95.159,327.8c-6.517,4.171-14.267,6.429-21.643,8.4-5.828,1.8-13.374,5.552-19.113,1.878-7.8-7.436,6.444-11.318,8.081-17.764.594-4.663-1.131-10.2-5.012-12.85l-.779.93c-.841,2.922-1.726,5.378-1.637,8.214-1.708,4.083-7.6.651-10.79.5-1.611-.543-3.666-.494-5.149-1.346-1.058-2.2.936-5.891-1.917-7.3-6.011-5.065-14.463-3.4-17.5,4.059-2.166,3.335-.3,7.641,1.527,10.694,2.121,1.679,4.413,1.547,6.051,3.5.214,7.5-1.767,9.086-8.223,7.651l-2.464.673c-.593,6.065-1.329,12.408-.5,18.492.519,2.929,1.548,5.813.73,8.782-.39,1.992-2.86,2.917-3.435,4.786a8.267,8.267,0,0,1-1.6,4.071c2.764.961,5.269,2.562,8.174,3.7,8.1,2.417,11.165-11.943,18.169-8.1,2.8,3.886,1.873,8.626,6.336,10.412,2.181.2,5.239-1.323,7.26.1,3.27,2.369,3.908,6.467,3.734,10.247-.169,1.99.867,6.133,3.16,3.449.789-1.985,1.332-4.352,2.441-6.231,3.317-5.332,9.651-7.178,14.806-10.179,2.053-1.34,4.34-1.554,6.538-2.351,2.5-.907,5.014-2.142,7.693-.888,4.615,1.71.579,7.672,6.981,7.92,5.811.557,12.472.006,18.641.8,3.747-8.391,2.95-18.755,3.581-27.73.033-3.285,2.127-5.111,5.17-3.6,14.614,8.57,7.387-5.492,5.332-13.155a58.841,58.841,0,0,1-3.3-13.974,24.2,24.2,0,0,1-7.892-2.86C110.048,314.766,102.422,324.426,95.159,327.8Z" transform="translate(-6.566 -170.223)"/><path class="d" d="M165.268,253.044c-3.284.762-4.609-3.8-6.291-5.817-4.5-5.887-5.985-14.5-10.455-20.445-3.079,2.046-6.76,2.881-13.54,4.979-10.062,8.231-16.918,20.79-25.607,30.367l-1.213,1.449c3.881,2.649,5.607,8.187,5.012,12.85-1.636,6.446-15.882,10.328-8.081,17.764,5.739,3.674,13.285-.078,19.113-1.878,7.375-1.967,15.126-4.225,21.643-8.4,7.263-3.373,14.89-13.034,23.454-9.071a24.185,24.185,0,0,0,7.892,2.86,79.761,79.761,0,0,1,1.116-23.563c-4.1-2.823-9.3-5.192-13.042-1.1" transform="translate(-57.255 -126.342)"/><path class="f" d="M165.268,253.044c-3.284.762-4.609-3.8-6.291-5.817-4.5-5.887-5.985-14.5-10.455-20.445-3.079,2.046-6.76,2.881-13.54,4.979-10.062,8.231-16.918,20.79-25.607,30.367l-1.213,1.449c3.881,2.649,5.607,8.187,5.012,12.85-1.636,6.446-15.882,10.328-8.081,17.764,5.739,3.674,13.285-.078,19.113-1.878,7.375-1.967,15.126-4.225,21.643-8.4,7.263-3.373,14.89-13.034,23.454-9.071a24.185,24.185,0,0,0,7.892,2.86,79.761,79.761,0,0,1,1.116-23.563C174.215,251.319,169.015,248.951,165.268,253.044Z" transform="translate(-57.255 -126.342)"/><path class="d" d="M232.231,82.287c-4.067,4.324-14.791,7.395-18.98,9.743-3.63.825-12.9,7.37-15.119,2.977-.869-1.532-1.345-4.865-2.7-6.018-4.441-.919-9.534.822-14.222,1.423-1.736.654-2.044.28-2.149,1.164-.431,4.117.4,8.457.285,12.638-.64,4.49,2.876,2.958,4.484,6.245.384,1,2.064,2.359,2.891,3.1,1.27,3.73-5.9,6.773,1.946,9.444,3.312-2.882,4.436-4.047,6.437-5.865,4.6.267,9.063,2.772,10.981,6.732-.519,4.492-3.994,7.829-6.194,11.711-3.77,5.9-6.1,8.814-8.938,10.7,4.47,5.941,5.952,14.559,10.455,20.446,1.682,2.014,3.008,6.579,6.291,5.817,3.747-4.094,8.947-1.725,13.042,1.1a134.016,134.016,0,0,1,6.151-21.7c2.366-8.814,3.276-18.937.9-27.738-1.01-3.661-5.45-5.5-5.6-9.2,3.658-5.027,11.8-6.09,14.954-11.781,1.057-4.493-1.827-14.985-4.913-20.938" transform="translate(-99.685 -45.843)"/><path class="g" d="M232.231,82.287c-4.067,4.324-14.791,7.395-18.98,9.743-3.63.825-12.9,7.37-15.119,2.977-.869-1.532-1.345-4.865-2.7-6.018-4.441-.919-9.534.822-14.222,1.423-1.736.654-2.044.28-2.149,1.164-.431,4.117.4,8.457.285,12.638-.64,4.49,2.876,2.958,4.484,6.245.384,1,2.064,2.359,2.891,3.1,1.27,3.73-5.9,6.773,1.946,9.444,3.312-2.882,4.436-4.047,6.437-5.865,4.6.267,9.063,2.772,10.981,6.732-.519,4.492-3.994,7.829-6.194,11.711-3.77,5.9-6.1,8.814-8.938,10.7,4.47,5.941,5.952,14.559,10.455,20.446,1.682,2.014,3.008,6.579,6.291,5.817,3.747-4.094,8.947-1.725,13.042,1.1a134.016,134.016,0,0,1,6.151-21.7c2.366-8.814,3.276-18.937.9-27.738-1.01-3.661-5.45-5.5-5.6-9.2,3.658-5.027,11.8-6.09,14.954-11.781C238.2,98.732,235.316,88.24,232.231,82.287Z" transform="translate(-99.685 -45.843)"/><path class="d" d="M303.028,141.7c2.038-.4,4.148-1.949,6.025-2.491,4.244-1.446,8.748-1.392,13.249-1.835,8.883.329,9.744-9.873,15.141-14.753q-.884-.849-1.749-1.752c-2.428-2.888-3.042-6.982-5.967-9.435-2.966-2.195-11.358-.422-10.232-6.043-.6-3.122-2.235-2.5-2.454-5.03,5.308-2.971,12.072-3.2,18.171-3.983a19.671,19.671,0,0,1-2.054-.655c-2.122-4.266,3.788-10.3-3.833-10.269-1.64-.221-3.554.822-5.316.383-2.619-.858-2.914-5.232-2.912-6.267.137-1.5-1.493-3.036-.483-4.419,2.815-2.324,3.248-5.928,3.433-9.4.969-3.934-.279-5.622-4.042-5.892l-3.028-.47c-2.022,2.66-4.714,5.9-7.646,7.595-5.923,1.745-8.712,2.155-12.863-2.8-1.919-2-4.487-1.323-6.716-.506-1.326.728-1.137,1.471-1.561,3.059a5.509,5.509,0,0,1-1.549,2.788c3.086,5.952,5.969,16.445,4.913,20.938-3.157,5.69-11.3,6.754-14.954,11.781.151,3.7,4.591,5.54,5.6,9.2,2.23,8.259,1.566,17.682-.48,26.094,3.127,2.2,7.22,2.97,11.048,3.54,3.719.361,6.606,1.433,10.258.616" transform="translate(-154.095 -33.087)"/><path class="f" d="M303.028,141.7c2.038-.4,4.148-1.949,6.025-2.491,4.244-1.446,8.748-1.392,13.249-1.835,8.883.329,9.744-9.873,15.141-14.753q-.884-.849-1.749-1.752c-2.428-2.888-3.042-6.982-5.967-9.435-2.966-2.195-11.358-.422-10.232-6.043-.6-3.122-2.235-2.5-2.454-5.03,5.308-2.971,12.072-3.2,18.171-3.983a19.671,19.671,0,0,1-2.054-.655c-2.122-4.266,3.788-10.3-3.833-10.269-1.64-.221-3.554.822-5.316.383-2.619-.858-2.914-5.232-2.912-6.267.137-1.5-1.493-3.036-.483-4.419,2.815-2.324,3.248-5.928,3.433-9.4.969-3.934-.279-5.622-4.042-5.892l-3.028-.47c-2.022,2.66-4.714,5.9-7.646,7.595-5.923,1.745-8.712,2.155-12.863-2.8-1.919-2-4.487-1.323-6.716-.506-1.326.728-1.137,1.471-1.561,3.059a5.509,5.509,0,0,1-1.549,2.788c3.086,5.952,5.969,16.445,4.913,20.938-3.157,5.69-11.3,6.754-14.954,11.781.151,3.7,4.591,5.54,5.6,9.2,2.23,8.259,1.566,17.682-.48,26.094,3.127,2.2,7.22,2.97,11.048,3.54C296.488,141.446,299.375,142.518,303.028,141.7Z" transform="translate(-154.095 -33.087)"/><path class="d" d="M263.286,392.78c1.7,5.851,1.716,10.278-8.082,4.533-3.043-1.509-5.137.316-5.169,3.6-.632,8.975.165,19.339-3.581,27.73a23.291,23.291,0,0,1,11.4,4.174c3.438,2.063,5.607,2.258,8.057,3.862a24.851,24.851,0,0,1,7.033-6.13,13.943,13.943,0,0,1,9.144,1.107c2.672-3.35,6.284-5.662,7.888-10.031,1.372-3.819-.528-7.978-1.045-11.818-.482-5.863-2.524-11.175-5.017-16.356-6.764-.092-13.92.55-20.622-.673" transform="translate(-137.3 -218.82)"/><path class="e" d="M263.286,392.78c1.7,5.851,1.716,10.278-8.082,4.533-3.043-1.509-5.137.316-5.169,3.6-.632,8.975.165,19.339-3.581,27.73a23.291,23.291,0,0,1,11.4,4.174c3.438,2.063,5.607,2.258,8.057,3.862a24.851,24.851,0,0,1,7.033-6.13,13.943,13.943,0,0,1,9.144,1.107c2.672-3.35,6.284-5.662,7.888-10.031,1.372-3.819-.528-7.978-1.045-11.818-.482-5.863-2.524-11.175-5.017-16.356C277.144,393.361,269.989,394,263.286,392.78Z" transform="translate(-137.3 -218.82)"/><path class="d" d="M308.79,262.523c-7.757,1.095-20.283,6.336-18.866-6.779.15-4.876,2.183-11.217.608-16.162-.5-.072-1.008-.139-1.536-.19-3.828-.57-7.921-1.335-11.048-3.54q-.2.829-.42,1.643c-6.929,18.785-11.159,39.958-3.971,59.237.677,2.525,1.916,5.745,2.75,8.622,6.7,1.223,13.858.581,20.622.673-.643-1.337-1.314-2.666-2-3.993-3.076-6.919,2.966-12.921,7.449-17.465,3.894-4.64,8.59-9.711,12.214-14.584a91.645,91.645,0,0,1,5.527-7.4,58.932,58.932,0,0,0-11.331-.067" transform="translate(-150.321 -131.395)"/><path class="g" d="M308.79,262.523c-7.757,1.095-20.283,6.336-18.866-6.779.15-4.876,2.183-11.217.608-16.162-.5-.072-1.008-.139-1.536-.19-3.828-.57-7.921-1.335-11.048-3.54q-.2.829-.42,1.643c-6.929,18.785-11.159,39.958-3.971,59.237.677,2.525,1.916,5.745,2.75,8.622,6.7,1.223,13.858.581,20.622.673-.643-1.337-1.314-2.666-2-3.993-3.076-6.919,2.966-12.921,7.449-17.465,3.894-4.64,8.59-9.711,12.214-14.584a91.645,91.645,0,0,1,5.527-7.4A58.932,58.932,0,0,0,308.79,262.523Z" transform="translate(-150.321 -131.395)"/><path class="d" d="M371.774,210.239a32.967,32.967,0,0,1-12.964-8.079c-5.4,4.88-6.258,15.082-15.141,14.753-4.5.443-9,.389-13.249,1.835-1.876.542-3.987,2.092-6.025,2.49-3.133.7-5.705.012-8.721-.426,1.574,4.944-.458,11.286-.609,16.162-1.416,13.115,11.11,7.874,18.867,6.779a58.9,58.9,0,0,1,11.331.067,33.226,33.226,0,0,0,2.788-4.171c2.424-5.467,6.2-10.634,11.762-13.219,4.1-2.089,8.709-1.457,13.14-2.8,2.84-3.4,6.3-3.332,9.464-.481a1.7,1.7,0,0,0,1.164.264c4.754-1.267,2.956-6.043,5.084-9.644a94.554,94.554,0,0,1-16.893-3.534" transform="translate(-175.463 -112.624)"/><path class="g" d="M371.774,210.239a32.967,32.967,0,0,1-12.964-8.079c-5.4,4.88-6.258,15.082-15.141,14.753-4.5.443-9,.389-13.249,1.835-1.876.542-3.987,2.092-6.025,2.49-3.133.7-5.705.012-8.721-.426,1.574,4.944-.458,11.286-.609,16.162-1.416,13.115,11.11,7.874,18.867,6.779a58.9,58.9,0,0,1,11.331.067,33.226,33.226,0,0,0,2.788-4.171c2.424-5.467,6.2-10.634,11.762-13.219,4.1-2.089,8.709-1.457,13.14-2.8,2.84-3.4,6.3-3.332,9.464-.481a1.7,1.7,0,0,0,1.164.264c4.754-1.267,2.956-6.043,5.084-9.644A94.554,94.554,0,0,1,371.774,210.239Z" transform="translate(-175.463 -112.624)"/><path class="d" d="M358.592,399.7c-4-6.359-12.276-2.564-17.565.275-2.7,1.207-6.1,1.228-8.9,2.06a3.648,3.648,0,0,0-.506.191,37.812,37.812,0,0,1,2.12,9.5c.517,3.84,2.417,8,1.045,11.818-1.6,4.369-5.217,6.681-7.889,10.031a20.381,20.381,0,0,1,6.651,5.085c2.158,2.292,5.358,3.55,8.3,1.8,3.843-2.563,7.355-7.078,12.359-7.27,9.042-.721,15.016,1.668,20.866,7.1,3.414-3.244,9.72,1.765,13.9-9.473,1.353-5.416-2.678-10.158-2.753-15.445a18.691,18.691,0,0,1,2.81-9.157,40.084,40.084,0,0,0-16.795-5.2c-4.3-.939-10.018,1.477-13.65-1.322" transform="translate(-182.117 -220.746)"/><path class="f" d="M358.592,399.7c-4-6.359-12.276-2.564-17.565.275-2.7,1.207-6.1,1.228-8.9,2.06a3.648,3.648,0,0,0-.506.191,37.812,37.812,0,0,1,2.12,9.5c.517,3.84,2.417,8,1.045,11.818-1.6,4.369-5.217,6.681-7.889,10.031a20.381,20.381,0,0,1,6.651,5.085c2.158,2.292,5.358,3.55,8.3,1.8,3.843-2.563,7.355-7.078,12.359-7.27,9.042-.721,15.016,1.668,20.866,7.1,3.414-3.244,9.72,1.765,13.9-9.473,1.353-5.416-2.678-10.158-2.753-15.445a18.691,18.691,0,0,1,2.81-9.157,40.084,40.084,0,0,0-16.795-5.2C367.945,400.087,362.223,402.5,358.592,399.7Z" transform="translate(-182.117 -220.746)"/><path class="d" d="M396.053,349.726c-2-2.382-5.232-3.474-7.148-5.9-2.193-3.036-2.16-6.588-6.537-7.708-4.193-1.622-8.754.988-12.931,1.5-8.111-.454-6.888,1.7-12.829,3.155-8.384-4.554-12.693-.182-20.047-4.892-1.256,1.446-2.493,2.872-3.656,4.257-4.484,4.544-10.525,10.546-7.45,17.465a86.777,86.777,0,0,1,4.9,10.845,3.73,3.73,0,0,1,.506-.192c2.8-.832,6.2-.852,8.9-2.059,5.289-2.839,13.568-6.634,17.565-.275,3.632,2.8,9.353.382,13.65,1.322a40.082,40.082,0,0,1,16.795,5.2q.295-.514.606-1.012c2.95-1.267,2.564-.8,4.315-1.789,1.494-1.345,2.209-4.236,3.21-5.9a24.19,24.19,0,0,0,3.6-5.12c.577-.938.752-2.653,1.707-4.017a47.846,47.846,0,0,1-5.146-4.875" transform="translate(-180.846 -186.959)"/><path class="g" d="M396.053,349.726c-2-2.382-5.232-3.474-7.148-5.9-2.193-3.036-2.16-6.588-6.537-7.708-4.193-1.622-8.754.988-12.931,1.5-8.111-.454-6.888,1.7-12.829,3.155-8.384-4.554-12.693-.182-20.047-4.892-1.256,1.446-2.493,2.872-3.656,4.257-4.484,4.544-10.525,10.546-7.45,17.465a86.777,86.777,0,0,1,4.9,10.845,3.73,3.73,0,0,1,.506-.192c2.8-.832,6.2-.852,8.9-2.059,5.289-2.839,13.568-6.634,17.565-.275,3.632,2.8,9.353.382,13.65,1.322a40.082,40.082,0,0,1,16.795,5.2q.295-.514.606-1.012c2.95-1.267,2.564-.8,4.315-1.789,1.494-1.345,2.209-4.236,3.21-5.9a24.19,24.19,0,0,0,3.6-5.12c.577-.938.752-2.653,1.707-4.017A47.846,47.846,0,0,1,396.053,349.726Z" transform="translate(-180.846 -186.959)"/><path class="d" d="M430,254.628c-14.189-12.76,9.132-12.822,3.112-31.488a22.919,22.919,0,0,1-5.62,1.759,63.05,63.05,0,0,1-18.42.562c-2.128,3.6-.331,8.377-5.084,9.644a1.7,1.7,0,0,1-1.164-.263c-3.166-2.852-6.624-2.921-9.465.481-4.431,1.339-9.038.707-13.14,2.8-5.563,2.585-9.338,7.752-11.762,13.219-2.273,4.149-5.827,7.516-8.316,11.567-2.542,3.418-5.609,6.931-8.559,10.326,7.355,4.71,11.664.338,20.048,4.893,5.941-1.453,4.718-3.61,12.829-3.156,4.176-.512,8.737-3.121,12.931-1.5,4.377,1.121,4.344,4.673,6.537,7.708,1.916,2.43,5.146,3.522,7.148,5.9a47.866,47.866,0,0,0,5.147,4.875,4.4,4.4,0,0,1,.73-.817c2.151-1.221,4.014-3.336,6.2-4.5,1.65-.627,3.276-.029,4.743.7,1.476.374,3.343.542,5.066.787-.465-4.4,2.428-8.846,3.649-13,3.883-9.633.61-14.239-6.614-20.5" transform="translate(-195.87 -124.312)"/><path class="f" d="M430,254.628c-14.189-12.76,9.132-12.822,3.112-31.488a22.919,22.919,0,0,1-5.62,1.759,63.05,63.05,0,0,1-18.42.562c-2.128,3.6-.331,8.377-5.084,9.644a1.7,1.7,0,0,1-1.164-.263c-3.166-2.852-6.624-2.921-9.465.481-4.431,1.339-9.038.707-13.14,2.8-5.563,2.585-9.338,7.752-11.762,13.219-2.273,4.149-5.827,7.516-8.316,11.567-2.542,3.418-5.609,6.931-8.559,10.326,7.355,4.71,11.664.338,20.048,4.893,5.941-1.453,4.718-3.61,12.829-3.156,4.176-.512,8.737-3.121,12.931-1.5,4.377,1.121,4.344,4.673,6.537,7.708,1.916,2.43,5.146,3.522,7.148,5.9a47.866,47.866,0,0,0,5.147,4.875,4.4,4.4,0,0,1,.73-.817c2.151-1.221,4.014-3.336,6.2-4.5,1.65-.627,3.276-.029,4.743.7,1.476.374,3.343.542,5.066.787-.465-4.4,2.428-8.846,3.649-13C440.5,265.5,437.225,260.89,430,254.628Z" transform="translate(-195.87 -124.312)"/></g></g><g transform="translate(27.75 66.354)"><g class="h" transform="translate(167.053)"><path class="k" d="M 45.50369644165039 22.2518424987793 L 11.37592601776123 22.2518424987793 C 8.470866203308105 22.2518424987793 5.739675998687744 21.12055397033691 3.685486078262329 19.06636238098145 C 1.631296038627625 17.01217269897461 0.5000059604644775 14.28098297119141 0.5000059604644775 11.37592315673828 C 0.5000059604644775 8.470863342285156 1.631296038627625 5.739673137664795 3.685486078262329 3.68548321723938 C 5.739675998687744 1.631293177604675 8.470866203308105 0.5000031590461731 11.37592601776123 0.5000031590461731 L 45.50369644165039 0.5000031590461731 C 48.40875625610352 0.5000031590461731 51.13994598388672 1.631293177604675 53.19413757324219 3.68548321723938 C 55.24832534790039 5.739673137664795 56.37961578369141 8.470863342285156 56.37961578369141 11.37592315673828 C 56.37961578369141 14.28098297119141 55.24832534790039 17.01217269897461 53.19413757324219 19.06636238098145 C 51.13994598388672 21.12055397033691 48.40875625610352 22.2518424987793 45.50369644165039 22.2518424987793 Z"/><path class="l" d="M 11.37592697143555 1.000003814697266 C 5.654617309570312 1.000003814697266 0.9999961853027344 5.654623031616211 0.9999961853027344 11.37592315673828 C 0.9999961853027344 17.09722328186035 5.654617309570312 21.7518424987793 11.37592697143555 21.7518424987793 L 45.50369644165039 21.7518424987793 C 51.22499465942383 21.7518424987793 55.87960433959961 17.09722328186035 55.87960433959961 11.37592315673828 C 55.87960433959961 5.654623031616211 51.22499465942383 1.000003814697266 45.50369644165039 1.000003814697266 L 11.37592697143555 1.000003814697266 M 11.37592697143555 3.814697265625e-06 L 45.50369644165039 3.814697265625e-06 C 51.78643798828125 3.814697265625e-06 56.87960433959961 5.093173980712891 56.87960433959961 11.37592315673828 C 56.87960433959961 17.65867233276367 51.78643798828125 22.7518424987793 45.50369644165039 22.7518424987793 L 11.37592697143555 22.7518424987793 C 5.093177795410156 22.7518424987793 -3.814697265625e-06 17.65867233276367 -3.814697265625e-06 11.37592315673828 C -3.814697265625e-06 5.093173980712891 5.093177795410156 3.814697265625e-06 11.37592697143555 3.814697265625e-06 Z"/></g><g class="i" transform="translate(171.256 134.139)"><rect class="k" width="57" height="22" rx="11"/><rect class="a" x="0.5" y="0.5" width="56" height="21" rx="10.5"/></g><g class="i" transform="translate(124.257 114.139)"><rect class="k" width="56" height="23" rx="11.5"/><rect class="a" x="0.5" y="0.5" width="55" height="22" rx="11"/></g><g class="i" transform="translate(67.256 115.139)"><rect class="k" width="57" height="23" rx="11.5"/><rect class="a" x="0.5" y="0.5" width="56" height="22" rx="11"/></g><g class="i" transform="translate(0.256 104.139)"><rect class="k" width="57" height="23" rx="11.5"/><rect class="a" x="0.5" y="0.5" width="56" height="22" rx="11"/></g><g class="i" transform="translate(24.256 56.139)"><rect class="k" width="57" height="23" rx="11.5"/><rect class="a" x="0.5" y="0.5" width="56" height="22" rx="11"/></g><g class="i" transform="translate(145.256 50.139)"><rect class="k" width="57" height="23" rx="11.5"/><rect class="a" x="0.5" y="0.5" width="56" height="22" rx="11"/></g><g class="i" transform="translate(203.256 61.139)"><rect class="k" width="57" height="22" rx="11"/><rect class="a" x="0.5" y="0.5" width="56" height="21" rx="10.5"/></g><g class="i" transform="translate(119.257 87.139)"><rect class="k" width="58" height="22" rx="11"/><rect class="a" x="0.5" y="0.5" width="57" height="21" rx="10.5"/></g><g class="i" transform="translate(53.256 5.139)"><rect class="k" width="41" height="23" rx="11.5"/><rect class="a" x="0.5" y="0.5" width="40" height="22" rx="11"/></g><g class="i" transform="translate(97.257 0.139)"><rect class="k" width="41" height="23" rx="11.5"/><rect class="a" x="0.5" y="0.5" width="40" height="22" rx="11"/></g><g class="i" transform="translate(107.257 37.139)"><rect class="k" width="41" height="23" rx="11.5"/><rect class="a" x="0.5" y="0.5" width="40" height="22" rx="11"/></g><g class="i" transform="translate(84.257 64.139)"><rect class="k" width="41" height="23" rx="11.5"/><rect class="a" x="0.5" y="0.5" width="40" height="22" rx="11"/></g><g class="i" transform="translate(19.256 153.139)"><rect class="k" width="40" height="23" rx="11.5"/><rect class="a" x="0.5" y="0.5" width="39" height="22" rx="11"/></g><g class="i" transform="translate(106.257 161.139)"><rect class="k" width="41" height="23" rx="11.5"/><rect class="a" x="0.5" y="0.5" width="40" height="22" rx="11"/></g><g class="i" transform="translate(164.256 186.139)"><rect class="k" width="41" height="23" rx="11.5"/><rect class="a" x="0.5" y="0.5" width="40" height="22" rx="11"/></g></g><g transform="translate(36.516 71.102)"><text class="j" transform="translate(167.857 10.886)"><tspan x="0" y="0"><a href="#" onMouseOut="this.style.fill='#000'" onMouseOver="this.style.fill='#849055'""></a></tspan></text><text class="j" transform="translate(95.726 11)"><tspan x="0" y="0"><a href="#" onMouseOut="this.style.fill='#000'" onMouseOver="this.style.fill='#849055'""></a></tspan></text><text class="j" transform="translate(53.262 16.315)"><tspan x="0" y="0"><a href="#" onMouseOut="this.style.fill='#000'" onMouseOver="this.style.fill='#849055'""></a></tspan></text><text class="j" transform="translate(23.916 67.69)"><tspan x="0" y="0"><a href="#" onMouseOut="this.style.fill='#000'" onMouseOver="this.style.fill='#849055'""></a></tspan></text><text class="j" transform="translate(83.821 76.105)"><tspan x="0" y="0"><a href="#" onMouseOut="this.style.fill='#000'" onMouseOver="this.style.fill='#849055'""></a></tspan></text><text class="j" transform="translate(106.295 48.646)"><tspan x="0" y="0"><a href="#" onMouseOut="this.style.fill='#000'" onMouseOver="this.style.fill='#849055'""></a></tspan></text><text class="j" transform="translate(145.269 61.376)"><tspan x="0" y="0"><a href="#" onMouseOut="this.style.fill='#000'" onMouseOver="this.style.fill='#849055'""></a></tspan></text><text class="j" transform="translate(203.731 71.677)"><tspan x="0" y="0"><a href="#" onMouseOut="this.style.fill='#000'" onMouseOver="this.style.fill='#849055'""></a></tspan></text><text class="j" transform="translate(172.729 144.379)"><tspan x="0" y="0"><a href="#" onMouseOut="this.style.fill='#000'" onMouseOver="this.style.fill='#849055'""></a></tspan></text><text class="j" transform="translate(162.985 197.458)"><tspan x="0" y="0"><a href="#" onMouseOut="this.style.fill='#000'" onMouseOver="this.style.fill='#849055'""></a></tspan></text><text class="j" transform="translate(120.91 97.921)"><tspan x="0" y="0"><a href="#" onMouseOut="this.style.fill='#000'" onMouseOver="this.style.fill='#849055'""></a></tspan></text><text class="j" transform="translate(124.9 125.441)"><tspan x="0" y="0"><a href="#" onMouseOut="this.style.fill='#000'" onMouseOver="this.style.fill='#849055'""></a></tspan></text><text class="j" transform="translate(68.179 126.481)"><tspan x="0" y="0"><a href="#" onMouseOut="this.style.fill='#000'" onMouseOver="this.style.fill='#849055'""></a></tspan></text><text class="j" transform="translate(0 115.966)"><tspan x="0" y="0"><a href="#" onMouseOut="this.style.fill='#000'" onMouseOver="this.style.fill='#849055'""></a></tspan></text><text class="j" transform="translate(17.273 164.684)"><tspan x="0" y="0"><a href="#" onMouseOut="this.style.fill='#000'" onMouseOver="this.style.fill='#849055'""></a></tspan></text><text class="j" transform="translate(105.966 172.771)"><tspan x="0" y="0"><a href="#" onMouseOut="this.style.fill='#000'" onMouseOver="this.style.fill='#849055'""></a></tspan></text></g></g></svg>