<svg xmlns="http://www.w3.org/2000/svg" width="266" height="177"><defs><clipPath id="b"><path fill="none" d="M0 0h21.534v23.267H0z"/></clipPath><filter id="a" x="0" y="0" width="266" height="177" filterUnits="userSpaceOnUse"><feOffset dy="3"/><feGaussianBlur stdDeviation="5" result="b"/><feFlood flood-opacity=".161"/><feComposite operator="in" in2="b"/><feComposite in="SourceGraphic"/></filter></defs><g transform="translate(0 -.001)" filter="url(#a)"><path d="M126.727 147.25C64.473 145.38 15 115.84 15 79.671 15 42.3 67.83 12 133 12s118 30.3 118 67.671c0 36.189-49.531 65.742-111.834 67.582L132.948 159z" fill="#fff"/></g><text transform="translate(63 100)" font-family="NotoSansJP-Medium,Noto Sans JP" font-weight="500" font-size="20" fill="#333"><tspan x="0" y="0">エリアから</tspan><tspan y="0">検索</tspan></text><text transform="translate(103 72)" font-size="12" font-family="NotoSansJP-Medium,Noto Sans JP" font-weight="500" fill="#333"><tspan x="0" y="0">　全国</tspan><tspan y="0">の</tspan></text><g clip-path="url(#b)" transform="translate(117.989 32.951)"><path d="M21.52 19.894c-.026-.031-.2-.208-.39-.392l-4.817-4.713a9.536 9.536 0 01-2.919 2.445l3.807 5.565c.149.217.292.421.319.452.131.156 1.6-.838 2.247-1.384s1.908-1.789 1.754-1.972M15.571 3.15a8.817 8.817 0 10-1.087 12.421A8.817 8.817 0 0015.571 3.15m-1.937 11.408a7.494 7.494 0 11.924-10.557 7.494 7.494 0 01-.924 10.558" fill="#333"/></g></svg>