<svg xmlns="http://www.w3.org/2000/svg" width="23" height="23"><g transform="translate(-139 -94)"><circle cx="11.5" cy="11.5" r="11.5" transform="translate(139 94)" fill="#91af1a"/><path d="M157.118 106.158a.8.8 0 010-.573l.571-1.5a.8.8 0 00-.312-.96l-1.344-.877a.8.8 0 01-.337-.464l-.419-1.549a.8.8 0 00-.816-.593l-1.6.08a.806.806 0 01-.545-.177l-1.252-1.009a.8.8 0 00-1.009 0l-1.25 1.006a.806.806 0 01-.545.177l-1.6-.08a.8.8 0 00-.816.593l-.419 1.549a.806.806 0 01-.337.464l-1.344.877a.8.8 0 00-.312.96l.571 1.5a.8.8 0 010 .573l-.571 1.5a.8.8 0 00.312.96l1.344.878a.8.8 0 01.337.463l.419 1.549a.8.8 0 00.816.593l1.6-.08a.8.8 0 01.545.177l1.25 1.007a.8.8 0 001.009 0l1.25-1.007a.8.8 0 01.545-.177l1.6.08a.8.8 0 00.816-.593l.421-1.547a.8.8 0 01.337-.463l1.344-.878a.8.8 0 00.312-.96zm-5.6 3.033a.556.556 0 01-.555.556h-.813a.556.556 0 01-.556-.556v-.852a.556.556 0 01.556-.556h.813a.556.556 0 01.555.556zm0-2.939a.555.555 0 01-.555.555h-.813a.556.556 0 01-.556-.555v-3.7a.556.556 0 01.556-.556h.813a.555.555 0 01.555.556z" fill="#fff"/></g></svg>