<svg xmlns="http://www.w3.org/2000/svg" width="23" height="23"><g transform="translate(-139 -94)"><circle cx="11.5" cy="11.5" r="11.5" transform="translate(139 94)" fill="#91af1a"/><path d="M143.399 105.629a.07.07 0 00-.074-.008.068.068 0 00-.036.065l.105 1.655a.067.067 0 01-.042.068l-1.024.407a.068.068 0 00-.014.12l2.748 1.667a.066.066 0 00.064.007.067.067 0 00.041-.051l.414-2.353a.068.068 0 00-.024-.065zm14.581 1.78a.07.07 0 01-.043-.068l.106-1.655a.068.068 0 00-.111-.058l-2.157 1.511a.068.068 0 00-.024.065l.414 2.353a.066.066 0 00.04.051.068.068 0 00.065-.007l2.747-1.667a.067.067 0 00.029-.064.069.069 0 00-.042-.056zm-7.315 1.967a10.051 10.051 0 01-4.424-1.022l-.431 2.447a12.506 12.506 0 009.709 0l-.431-2.447a10.045 10.045 0 01-4.423 1.022zm-5.93-6.74l.213.431.476.069-.344.336.081.474-.426-.224-.426.224.081-.474-.345-.336.476-.069zm2.047-3.406l.213.431.476.069-.345.336.081.474-.426-.224-.426.224.082-.474-.345-.336.476-.069zm9.815 3.406l-.213.431-.476.069.344.336-.081.474.426-.224.426.224-.081-.474.344-.336-.476-.069zm-2.043-3.406l-.213.431-.476.069.344.336-.081.474.426-.224.426.224-.081-.474.345-.336-.476-.069zm-4.036-1.197l.213.431.476.07-.345.336.081.474-.426-.224-.426.224.081-.474-.345-.336.476-.07zm-.504 2.725a.648.648 0 011.163 0l.645 1.307a.65.65 0 00.488.355l1.443.209a.648.648 0 01.36 1.106l-1.044 1.018a.649.649 0 00-.187.574l.247 1.437a.648.648 0 01-.941.683l-1.291-.678a.648.648 0 00-.6 0l-1.29.678a.648.648 0 01-.941-.683l.247-1.437a.649.649 0 00-.186-.574l-1.044-1.018a.649.649 0 01.36-1.106l1.443-.209a.649.649 0 00.488-.355z" fill="#fff"/></g></svg>